<?xml version="1.0" encoding="UTF-8" standalone="no"?>
<!DOCTYPE svg PUBLIC "-//W3C//DTD SVG 1.1//EN"
 "http://www.w3.org/Graphics/SVG/1.1/DTD/svg11.dtd">
<!-- Generated by graphviz version 2.43.0 (0)
 -->
<!-- Title: G Pages: 1 -->
<svg width="862pt" height="653pt"
 viewBox="0.00 0.00 861.74 653.00" xmlns="http://www.w3.org/2000/svg" xmlns:xlink="http://www.w3.org/1999/xlink">
<g id="graph0" class="graph" transform="scale(1 1) rotate(0) translate(4 649)">
<title>G</title>
<polygon fill="white" stroke="transparent" points="-4,4 -4,-649 857.74,-649 857.74,4 -4,4"/>
<!-- Node1 -->
<g id="node1" class="node">
<title>Node1</title>
<ellipse fill="none" stroke="black" cx="506.95" cy="-627" rx="40.89" ry="18"/>
<text text-anchor="middle" x="506.95" y="-623.3" font-family="Times,serif" font-size="14.00">Node1</text>
</g>
<!-- Node2 -->
<g id="node2" class="node">
<title>Node2</title>
<ellipse fill="none" stroke="black" cx="252.95" cy="-540" rx="40.89" ry="18"/>
<text text-anchor="middle" x="252.95" y="-536.3" font-family="Times,serif" font-size="14.00">Node2</text>
</g>
<!-- Node1&#45;&gt;Node2 -->
<g id="edge1" class="edge">
<title>Node1&#45;&gt;Node2</title>
<path fill="none" stroke="black" d="M475.12,-615.46C434.97,-602.14 363.8,-578.49 302.95,-558 300.04,-557.02 297.04,-556.01 294.03,-554.99"/>
<polygon fill="black" stroke="black" points="295,-551.63 284.41,-551.73 292.76,-558.25 295,-551.63"/>
<text text-anchor="middle" x="402.95" y="-579.8" font-family="Times,serif" font-size="14.00">h</text>
</g>
<!-- Node10 -->
<g id="node10" class="node">
<title>Node10</title>
<ellipse fill="none" stroke="black" cx="358.95" cy="-540" rx="46.59" ry="18"/>
<text text-anchor="middle" x="358.95" y="-536.3" font-family="Times,serif" font-size="14.00">Node10</text>
</g>
<!-- Node1&#45;&gt;Node10 -->
<g id="edge9" class="edge">
<title>Node1&#45;&gt;Node10</title>
<path fill="none" stroke="black" d="M483.17,-612.34C458.79,-598.35 420.66,-576.44 393.07,-560.6"/>
<polygon fill="black" stroke="black" points="394.57,-557.42 384.15,-555.48 391.08,-563.49 394.57,-557.42"/>
<text text-anchor="middle" x="446.45" y="-579.8" font-family="Times,serif" font-size="14.00">a</text>
</g>
<!-- Node19 -->
<g id="node19" class="node">
<title>Node19</title>
<ellipse fill="none" stroke="black" cx="470.95" cy="-540" rx="46.59" ry="18"/>
<text text-anchor="middle" x="470.95" y="-536.3" font-family="Times,serif" font-size="14.00">Node19</text>
</g>
<!-- Node1&#45;&gt;Node19 -->
<g id="edge18" class="edge">
<title>Node1&#45;&gt;Node19</title>
<path fill="none" stroke="black" d="M499.83,-609.21C494.79,-597.29 487.91,-581.06 482.14,-567.42"/>
<polygon fill="black" stroke="black" points="485.29,-565.89 478.17,-558.05 478.84,-568.62 485.29,-565.89"/>
<text text-anchor="middle" x="496.95" y="-579.8" font-family="Times,serif" font-size="14.00">n</text>
</g>
<!-- Node23 -->
<g id="node23" class="node">
<title>Node23</title>
<ellipse fill="none" stroke="black" cx="582.95" cy="-540" rx="46.59" ry="18"/>
<text text-anchor="middle" x="582.95" y="-536.3" font-family="Times,serif" font-size="14.00">Node23</text>
</g>
<!-- Node1&#45;&gt;Node23 -->
<g id="edge22" class="edge">
<title>Node1&#45;&gt;Node23</title>
<path fill="none" stroke="black" d="M521.24,-610.01C532.63,-597.27 548.76,-579.24 561.67,-564.8"/>
<polygon fill="black" stroke="black" points="564.4,-566.99 568.46,-557.21 559.18,-562.33 564.4,-566.99"/>
<text text-anchor="middle" x="554.95" y="-579.8" font-family="Times,serif" font-size="14.00">b</text>
</g>
<!-- Node30 -->
<g id="node30" class="node">
<title>Node30</title>
<ellipse fill="none" stroke="black" cx="694.95" cy="-540" rx="46.59" ry="18"/>
<text text-anchor="middle" x="694.95" y="-536.3" font-family="Times,serif" font-size="14.00">Node30</text>
</g>
<!-- Node1&#45;&gt;Node30 -->
<g id="edge29" class="edge">
<title>Node1&#45;&gt;Node30</title>
<path fill="none" stroke="black" d="M534.69,-613.46C566.94,-598.88 620.37,-574.72 656.59,-558.34"/>
<polygon fill="black" stroke="black" points="658.18,-561.46 665.85,-554.15 655.3,-555.08 658.18,-561.46"/>
<text text-anchor="middle" x="616.95" y="-579.8" font-family="Times,serif" font-size="14.00">s</text>
</g>
<!-- Node34 -->
<g id="node34" class="node">
<title>Node34</title>
<ellipse fill="none" stroke="black" cx="806.95" cy="-540" rx="46.59" ry="18"/>
<text text-anchor="middle" x="806.95" y="-536.3" font-family="Times,serif" font-size="14.00">Node34</text>
</g>
<!-- Node1&#45;&gt;Node34 -->
<g id="edge33" class="edge">
<title>Node1&#45;&gt;Node34</title>
<path fill="none" stroke="black" d="M540.96,-616.78C588.18,-603.93 676.21,-579.75 750.95,-558 754.47,-556.97 758.12,-555.9 761.78,-554.81"/>
<polygon fill="black" stroke="black" points="762.86,-558.14 771.43,-551.91 760.85,-551.43 762.86,-558.14"/>
<text text-anchor="middle" x="687.95" y="-579.8" font-family="Times,serif" font-size="14.00">f</text>
</g>
<!-- Node3 -->
<g id="node3" class="node">
<title>Node3</title>
<ellipse fill="none" stroke="black" cx="235.95" cy="-453" rx="40.89" ry="18"/>
<text text-anchor="middle" x="235.95" y="-449.3" font-family="Times,serif" font-size="14.00">Node3</text>
</g>
<!-- Node2&#45;&gt;Node3 -->
<g id="edge2" class="edge">
<title>Node2&#45;&gt;Node3</title>
<path fill="none" stroke="black" d="M249.51,-521.8C247.18,-510.16 244.06,-494.55 241.39,-481.24"/>
<polygon fill="black" stroke="black" points="244.77,-480.29 239.38,-471.18 237.91,-481.67 244.77,-480.29"/>
<text text-anchor="middle" x="250.45" y="-492.8" font-family="Times,serif" font-size="14.00">e</text>
</g>
<!-- Node4 -->
<g id="node4" class="node">
<title>Node4</title>
<ellipse fill="none" stroke="black" cx="140.95" cy="-366" rx="40.89" ry="18"/>
<text text-anchor="middle" x="140.95" y="-362.3" font-family="Times,serif" font-size="14.00">Node4</text>
</g>
<!-- Node3&#45;&gt;Node4 -->
<g id="edge3" class="edge">
<title>Node3&#45;&gt;Node4</title>
<path fill="none" stroke="black" d="M218.52,-436.41C203.79,-423.23 182.51,-404.18 165.96,-389.38"/>
<polygon fill="black" stroke="black" points="168.05,-386.55 158.26,-382.49 163.38,-391.77 168.05,-386.55"/>
<text text-anchor="middle" x="197.45" y="-405.8" font-family="Times,serif" font-size="14.00">l</text>
</g>
<!-- Node5 -->
<g id="node5" class="node">
<title>Node5</title>
<ellipse fill="none" stroke="black" cx="40.95" cy="-279" rx="40.89" ry="18"/>
<text text-anchor="middle" x="40.95" y="-275.3" font-family="Times,serif" font-size="14.00">Node5</text>
</g>
<!-- Node4&#45;&gt;Node5 -->
<g id="edge4" class="edge">
<title>Node4&#45;&gt;Node5</title>
<path fill="none" stroke="black" d="M123.07,-349.8C107.38,-336.47 84.38,-316.92 66.71,-301.9"/>
<polygon fill="black" stroke="black" points="68.89,-299.16 59.01,-295.35 64.36,-304.49 68.89,-299.16"/>
<text text-anchor="middle" x="99.45" y="-318.8" font-family="Times,serif" font-size="14.00">l</text>
</g>
<!-- Node7 -->
<g id="node7" class="node">
<title>Node7</title>
<ellipse fill="none" stroke="black" cx="140.95" cy="-279" rx="40.89" ry="18"/>
<text text-anchor="middle" x="140.95" y="-275.3" font-family="Times,serif" font-size="14.00">Node7</text>
</g>
<!-- Node4&#45;&gt;Node7 -->
<g id="edge6" class="edge">
<title>Node4&#45;&gt;Node7</title>
<path fill="none" stroke="black" d="M140.95,-347.8C140.95,-336.16 140.95,-320.55 140.95,-307.24"/>
<polygon fill="black" stroke="black" points="144.45,-307.18 140.95,-297.18 137.45,-307.18 144.45,-307.18"/>
<text text-anchor="middle" x="143.45" y="-318.8" font-family="Times,serif" font-size="14.00">i</text>
</g>
<!-- Node6 -->
<g id="node6" class="node">
<title>Node6</title>
<ellipse fill="none" stroke="black" cx="40.95" cy="-192" rx="40.89" ry="18"/>
<text text-anchor="middle" x="40.95" y="-188.3" font-family="Times,serif" font-size="14.00">Node6</text>
</g>
<!-- Node5&#45;&gt;Node6 -->
<g id="edge5" class="edge">
<title>Node5&#45;&gt;Node6</title>
<path fill="none" stroke="black" d="M40.95,-260.8C40.95,-249.16 40.95,-233.55 40.95,-220.24"/>
<polygon fill="black" stroke="black" points="44.45,-220.18 40.95,-210.18 37.45,-220.18 44.45,-220.18"/>
<text text-anchor="middle" x="45.45" y="-231.8" font-family="Times,serif" font-size="14.00">o</text>
</g>
<!-- Node8 -->
<g id="node8" class="node">
<title>Node8</title>
<ellipse fill="none" stroke="black" cx="140.95" cy="-192" rx="40.89" ry="18"/>
<text text-anchor="middle" x="140.95" y="-188.3" font-family="Times,serif" font-size="14.00">Node8</text>
</g>
<!-- Node7&#45;&gt;Node8 -->
<g id="edge7" class="edge">
<title>Node7&#45;&gt;Node8</title>
<path fill="none" stroke="black" d="M140.95,-260.8C140.95,-249.16 140.95,-233.55 140.95,-220.24"/>
<polygon fill="black" stroke="black" points="144.45,-220.18 140.95,-210.18 137.45,-220.18 144.45,-220.18"/>
<text text-anchor="middle" x="145.95" y="-231.8" font-family="Times,serif" font-size="14.00">u</text>
</g>
<!-- Node9 -->
<g id="node9" class="node">
<title>Node9</title>
<ellipse fill="none" stroke="black" cx="140.95" cy="-105" rx="40.89" ry="18"/>
<text text-anchor="middle" x="140.95" y="-101.3" font-family="Times,serif" font-size="14.00">Node9</text>
</g>
<!-- Node8&#45;&gt;Node9 -->
<g id="edge8" class="edge">
<title>Node8&#45;&gt;Node9</title>
<path fill="none" stroke="black" d="M140.95,-173.8C140.95,-162.16 140.95,-146.55 140.95,-133.24"/>
<polygon fill="black" stroke="black" points="144.45,-133.18 140.95,-123.18 137.45,-133.18 144.45,-133.18"/>
<text text-anchor="middle" x="147.95" y="-144.8" font-family="Times,serif" font-size="14.00">m</text>
</g>
<!-- Node11 -->
<g id="node11" class="node">
<title>Node11</title>
<ellipse fill="none" stroke="black" cx="358.95" cy="-453" rx="46.59" ry="18"/>
<text text-anchor="middle" x="358.95" y="-449.3" font-family="Times,serif" font-size="14.00">Node11</text>
</g>
<!-- Node10&#45;&gt;Node11 -->
<g id="edge10" class="edge">
<title>Node10&#45;&gt;Node11</title>
<path fill="none" stroke="black" d="M358.95,-521.8C358.95,-510.16 358.95,-494.55 358.95,-481.24"/>
<polygon fill="black" stroke="black" points="362.45,-481.18 358.95,-471.18 355.45,-481.18 362.45,-481.18"/>
<text text-anchor="middle" x="363.95" y="-492.8" font-family="Times,serif" font-size="14.00">b</text>
</g>
<!-- Node12 -->
<g id="node12" class="node">
<title>Node12</title>
<ellipse fill="none" stroke="black" cx="246.95" cy="-366" rx="46.59" ry="18"/>
<text text-anchor="middle" x="246.95" y="-362.3" font-family="Times,serif" font-size="14.00">Node12</text>
</g>
<!-- Node11&#45;&gt;Node12 -->
<g id="edge11" class="edge">
<title>Node11&#45;&gt;Node12</title>
<path fill="none" stroke="black" d="M338.66,-436.61C320.9,-423.13 294.92,-403.41 275.13,-388.39"/>
<polygon fill="black" stroke="black" points="277.16,-385.54 267.08,-382.28 272.93,-391.11 277.16,-385.54"/>
<text text-anchor="middle" x="312.45" y="-405.8" font-family="Times,serif" font-size="14.00">i</text>
</g>
<!-- Node17 -->
<g id="node17" class="node">
<title>Node17</title>
<ellipse fill="none" stroke="black" cx="358.95" cy="-366" rx="46.59" ry="18"/>
<text text-anchor="middle" x="358.95" y="-362.3" font-family="Times,serif" font-size="14.00">Node17</text>
</g>
<!-- Node11&#45;&gt;Node17 -->
<g id="edge16" class="edge">
<title>Node11&#45;&gt;Node17</title>
<path fill="none" stroke="black" d="M358.95,-434.8C358.95,-423.16 358.95,-407.55 358.95,-394.24"/>
<polygon fill="black" stroke="black" points="362.45,-394.18 358.95,-384.18 355.45,-394.18 362.45,-394.18"/>
<text text-anchor="middle" x="361.45" y="-405.8" font-family="Times,serif" font-size="14.00">l</text>
</g>
<!-- Node13 -->
<g id="node13" class="node">
<title>Node13</title>
<ellipse fill="none" stroke="black" cx="246.95" cy="-279" rx="46.59" ry="18"/>
<text text-anchor="middle" x="246.95" y="-275.3" font-family="Times,serif" font-size="14.00">Node13</text>
</g>
<!-- Node12&#45;&gt;Node13 -->
<g id="edge12" class="edge">
<title>Node12&#45;&gt;Node13</title>
<path fill="none" stroke="black" d="M246.95,-347.8C246.95,-336.16 246.95,-320.55 246.95,-307.24"/>
<polygon fill="black" stroke="black" points="250.45,-307.18 246.95,-297.18 243.45,-307.18 250.45,-307.18"/>
<text text-anchor="middle" x="249.45" y="-318.8" font-family="Times,serif" font-size="14.00">l</text>
</g>
<!-- Node14 -->
<g id="node14" class="node">
<title>Node14</title>
<ellipse fill="none" stroke="black" cx="246.95" cy="-192" rx="46.59" ry="18"/>
<text text-anchor="middle" x="246.95" y="-188.3" font-family="Times,serif" font-size="14.00">Node14</text>
</g>
<!-- Node13&#45;&gt;Node14 -->
<g id="edge13" class="edge">
<title>Node13&#45;&gt;Node14</title>
<path fill="none" stroke="black" d="M246.95,-260.8C246.95,-249.16 246.95,-233.55 246.95,-220.24"/>
<polygon fill="black" stroke="black" points="250.45,-220.18 246.95,-210.18 243.45,-220.18 250.45,-220.18"/>
<text text-anchor="middle" x="249.45" y="-231.8" font-family="Times,serif" font-size="14.00">i</text>
</g>
<!-- Node15 -->
<g id="node15" class="node">
<title>Node15</title>
<ellipse fill="none" stroke="black" cx="246.95" cy="-105" rx="46.59" ry="18"/>
<text text-anchor="middle" x="246.95" y="-101.3" font-family="Times,serif" font-size="14.00">Node15</text>
</g>
<!-- Node14&#45;&gt;Node15 -->
<g id="edge14" class="edge">
<title>Node14&#45;&gt;Node15</title>
<path fill="none" stroke="black" d="M246.95,-173.8C246.95,-162.16 246.95,-146.55 246.95,-133.24"/>
<polygon fill="black" stroke="black" points="250.45,-133.18 246.95,-123.18 243.45,-133.18 250.45,-133.18"/>
<text text-anchor="middle" x="250.45" y="-144.8" font-family="Times,serif" font-size="14.00">t</text>
</g>
<!-- Node16 -->
<g id="node16" class="node">
<title>Node16</title>
<ellipse fill="none" stroke="black" cx="246.95" cy="-18" rx="46.59" ry="18"/>
<text text-anchor="middle" x="246.95" y="-14.3" font-family="Times,serif" font-size="14.00">Node16</text>
</g>
<!-- Node15&#45;&gt;Node16 -->
<g id="edge15" class="edge">
<title>Node15&#45;&gt;Node16</title>
<path fill="none" stroke="black" d="M246.95,-86.8C246.95,-75.16 246.95,-59.55 246.95,-46.24"/>
<polygon fill="black" stroke="black" points="250.45,-46.18 246.95,-36.18 243.45,-46.18 250.45,-46.18"/>
<text text-anchor="middle" x="251.45" y="-57.8" font-family="Times,serif" font-size="14.00">y</text>
</g>
<!-- Node18 -->
<g id="node18" class="node">
<title>Node18</title>
<ellipse fill="none" stroke="black" cx="358.95" cy="-279" rx="46.59" ry="18"/>
<text text-anchor="middle" x="358.95" y="-275.3" font-family="Times,serif" font-size="14.00">Node18</text>
</g>
<!-- Node17&#45;&gt;Node18 -->
<g id="edge17" class="edge">
<title>Node17&#45;&gt;Node18</title>
<path fill="none" stroke="black" d="M358.95,-347.8C358.95,-336.16 358.95,-320.55 358.95,-307.24"/>
<polygon fill="black" stroke="black" points="362.45,-307.18 358.95,-297.18 355.45,-307.18 362.45,-307.18"/>
<text text-anchor="middle" x="363.45" y="-318.8" font-family="Times,serif" font-size="14.00">e</text>
</g>
<!-- Node20 -->
<g id="node20" class="node">
<title>Node20</title>
<ellipse fill="none" stroke="black" cx="470.95" cy="-453" rx="46.59" ry="18"/>
<text text-anchor="middle" x="470.95" y="-449.3" font-family="Times,serif" font-size="14.00">Node20</text>
</g>
<!-- Node19&#45;&gt;Node20 -->
<g id="edge19" class="edge">
<title>Node19&#45;&gt;Node20</title>
<path fill="none" stroke="black" d="M470.95,-521.8C470.95,-510.16 470.95,-494.55 470.95,-481.24"/>
<polygon fill="black" stroke="black" points="474.45,-481.18 470.95,-471.18 467.45,-481.18 474.45,-481.18"/>
<text text-anchor="middle" x="473.45" y="-492.8" font-family="Times,serif" font-size="14.00">i</text>
</g>
<!-- Node21 -->
<g id="node21" class="node">
<title>Node21</title>
<ellipse fill="none" stroke="black" cx="470.95" cy="-366" rx="46.59" ry="18"/>
<text text-anchor="middle" x="470.95" y="-362.3" font-family="Times,serif" font-size="14.00">Node21</text>
</g>
<!-- Node20&#45;&gt;Node21 -->
<g id="edge20" class="edge">
<title>Node20&#45;&gt;Node21</title>
<path fill="none" stroke="black" d="M470.95,-434.8C470.95,-423.16 470.95,-407.55 470.95,-394.24"/>
<polygon fill="black" stroke="black" points="474.45,-394.18 470.95,-384.18 467.45,-394.18 474.45,-394.18"/>
<text text-anchor="middle" x="474.95" y="-405.8" font-family="Times,serif" font-size="14.00">c</text>
</g>
<!-- Node22 -->
<g id="node22" class="node">
<title>Node22</title>
<ellipse fill="none" stroke="black" cx="470.95" cy="-279" rx="46.59" ry="18"/>
<text text-anchor="middle" x="470.95" y="-275.3" font-family="Times,serif" font-size="14.00">Node22</text>
</g>
<!-- Node21&#45;&gt;Node22 -->
<g id="edge21" class="edge">
<title>Node21&#45;&gt;Node22</title>
<path fill="none" stroke="black" d="M470.95,-347.8C470.95,-336.16 470.95,-320.55 470.95,-307.24"/>
<polygon fill="black" stroke="black" points="474.45,-307.18 470.95,-297.18 467.45,-307.18 474.45,-307.18"/>
<text text-anchor="middle" x="475.45" y="-318.8" font-family="Times,serif" font-size="14.00">e</text>
</g>
<!-- Node24 -->
<g id="node24" class="node">
<title>Node24</title>
<ellipse fill="none" stroke="black" cx="582.95" cy="-453" rx="46.59" ry="18"/>
<text text-anchor="middle" x="582.95" y="-449.3" font-family="Times,serif" font-size="14.00">Node24</text>
</g>
<!-- Node23&#45;&gt;Node24 -->
<g id="edge23" class="edge">
<title>Node23&#45;&gt;Node24</title>
<path fill="none" stroke="black" d="M582.95,-521.8C582.95,-510.16 582.95,-494.55 582.95,-481.24"/>
<polygon fill="black" stroke="black" points="586.45,-481.18 582.95,-471.18 579.45,-481.18 586.45,-481.18"/>
<text text-anchor="middle" x="587.45" y="-492.8" font-family="Times,serif" font-size="14.00">a</text>
</g>
<!-- Node25 -->
<g id="node25" class="node">
<title>Node25</title>
<ellipse fill="none" stroke="black" cx="582.95" cy="-366" rx="46.59" ry="18"/>
<text text-anchor="middle" x="582.95" y="-362.3" font-family="Times,serif" font-size="14.00">Node25</text>
</g>
<!-- Node24&#45;&gt;Node25 -->
<g id="edge24" class="edge">
<title>Node24&#45;&gt;Node25</title>
<path fill="none" stroke="black" d="M582.95,-434.8C582.95,-423.16 582.95,-407.55 582.95,-394.24"/>
<polygon fill="black" stroke="black" points="586.45,-394.18 582.95,-384.18 579.45,-394.18 586.45,-394.18"/>
<text text-anchor="middle" x="585.45" y="-405.8" font-family="Times,serif" font-size="14.00">l</text>
</g>
<!-- Node26 -->
<g id="node26" class="node">
<title>Node26</title>
<ellipse fill="none" stroke="black" cx="582.95" cy="-279" rx="46.59" ry="18"/>
<text text-anchor="middle" x="582.95" y="-275.3" font-family="Times,serif" font-size="14.00">Node26</text>
</g>
<!-- Node25&#45;&gt;Node26 -->
<g id="edge25" class="edge">
<title>Node25&#45;&gt;Node26</title>
<path fill="none" stroke="black" d="M582.95,-347.8C582.95,-336.16 582.95,-320.55 582.95,-307.24"/>
<polygon fill="black" stroke="black" points="586.45,-307.18 582.95,-297.18 579.45,-307.18 586.45,-307.18"/>
<text text-anchor="middle" x="587.45" y="-318.8" font-family="Times,serif" font-size="14.00">a</text>
</g>
<!-- Node27 -->
<g id="node27" class="node">
<title>Node27</title>
<ellipse fill="none" stroke="black" cx="582.95" cy="-192" rx="46.59" ry="18"/>
<text text-anchor="middle" x="582.95" y="-188.3" font-family="Times,serif" font-size="14.00">Node27</text>
</g>
<!-- Node26&#45;&gt;Node27 -->
<g id="edge26" class="edge">
<title>Node26&#45;&gt;Node27</title>
<path fill="none" stroke="black" d="M582.95,-260.8C582.95,-249.16 582.95,-233.55 582.95,-220.24"/>
<polygon fill="black" stroke="black" points="586.45,-220.18 582.95,-210.18 579.45,-220.18 586.45,-220.18"/>
<text text-anchor="middle" x="587.95" y="-231.8" font-family="Times,serif" font-size="14.00">n</text>
</g>
<!-- Node28 -->
<g id="node28" class="node">
<title>Node28</title>
<ellipse fill="none" stroke="black" cx="582.95" cy="-105" rx="46.59" ry="18"/>
<text text-anchor="middle" x="582.95" y="-101.3" font-family="Times,serif" font-size="14.00">Node28</text>
</g>
<!-- Node27&#45;&gt;Node28 -->
<g id="edge27" class="edge">
<title>Node27&#45;&gt;Node28</title>
<path fill="none" stroke="black" d="M582.95,-173.8C582.95,-162.16 582.95,-146.55 582.95,-133.24"/>
<polygon fill="black" stroke="black" points="586.45,-133.18 582.95,-123.18 579.45,-133.18 586.45,-133.18"/>
<text text-anchor="middle" x="586.95" y="-144.8" font-family="Times,serif" font-size="14.00">c</text>
</g>
<!-- Node29 -->
<g id="node29" class="node">
<title>Node29</title>
<ellipse fill="none" stroke="black" cx="582.95" cy="-18" rx="46.59" ry="18"/>
<text text-anchor="middle" x="582.95" y="-14.3" font-family="Times,serif" font-size="14.00">Node29</text>
</g>
<!-- Node28&#45;&gt;Node29 -->
<g id="edge28" class="edge">
<title>Node28&#45;&gt;Node29</title>
<path fill="none" stroke="black" d="M582.95,-86.8C582.95,-75.16 582.95,-59.55 582.95,-46.24"/>
<polygon fill="black" stroke="black" points="586.45,-46.18 582.95,-36.18 579.45,-46.18 586.45,-46.18"/>
<text text-anchor="middle" x="587.45" y="-57.8" font-family="Times,serif" font-size="14.00">e</text>
</g>
<!-- Node31 -->
<g id="node31" class="node">
<title>Node31</title>
<ellipse fill="none" stroke="black" cx="694.95" cy="-453" rx="46.59" ry="18"/>
<text text-anchor="middle" x="694.95" y="-449.3" font-family="Times,serif" font-size="14.00">Node31</text>
</g>
<!-- Node30&#45;&gt;Node31 -->
<g id="edge30" class="edge">
<title>Node30&#45;&gt;Node31</title>
<path fill="none" stroke="black" d="M694.95,-521.8C694.95,-510.16 694.95,-494.55 694.95,-481.24"/>
<polygon fill="black" stroke="black" points="698.45,-481.18 694.95,-471.18 691.45,-481.18 698.45,-481.18"/>
<text text-anchor="middle" x="699.95" y="-492.8" font-family="Times,serif" font-size="14.00">h</text>
</g>
<!-- Node32 -->
<g id="node32" class="node">
<title>Node32</title>
<ellipse fill="none" stroke="black" cx="694.95" cy="-366" rx="46.59" ry="18"/>
<text text-anchor="middle" x="694.95" y="-362.3" font-family="Times,serif" font-size="14.00">Node32</text>
</g>
<!-- Node31&#45;&gt;Node32 -->
<g id="edge31" class="edge">
<title>Node31&#45;&gt;Node32</title>
<path fill="none" stroke="black" d="M694.95,-434.8C694.95,-423.16 694.95,-407.55 694.95,-394.24"/>
<polygon fill="black" stroke="black" points="698.45,-394.18 694.95,-384.18 691.45,-394.18 698.45,-394.18"/>
<text text-anchor="middle" x="697.45" y="-405.8" font-family="Times,serif" font-size="14.00">i</text>
</g>
<!-- Node33 -->
<g id="node33" class="node">
<title>Node33</title>
<ellipse fill="none" stroke="black" cx="694.95" cy="-279" rx="46.59" ry="18"/>
<text text-anchor="middle" x="694.95" y="-275.3" font-family="Times,serif" font-size="14.00">Node33</text>
</g>
<!-- Node32&#45;&gt;Node33 -->
<g id="edge32" class="edge">
<title>Node32&#45;&gt;Node33</title>
<path fill="none" stroke="black" d="M694.95,-347.8C694.95,-336.16 694.95,-320.55 694.95,-307.24"/>
<polygon fill="black" stroke="black" points="698.45,-307.18 694.95,-297.18 691.45,-307.18 698.45,-307.18"/>
<text text-anchor="middle" x="698.45" y="-318.8" font-family="Times,serif" font-size="14.00">t</text>
</g>
<!-- Node35 -->
<g id="node35" class="node">
<title>Node35</title>
<ellipse fill="none" stroke="black" cx="806.95" cy="-453" rx="46.59" ry="18"/>
<text text-anchor="middle" x="806.95" y="-449.3" font-family="Times,serif" font-size="14.00">Node35</text>
</g>
<!-- Node34&#45;&gt;Node35 -->
<g id="edge34" class="edge">
<title>Node34&#45;&gt;Node35</title>
<path fill="none" stroke="black" d="M806.95,-521.8C806.95,-510.16 806.95,-494.55 806.95,-481.24"/>
<polygon fill="black" stroke="black" points="810.45,-481.18 806.95,-471.18 803.45,-481.18 810.45,-481.18"/>
<text text-anchor="middle" x="811.95" y="-492.8" font-family="Times,serif" font-size="14.00">u</text>
</g>
<!-- Node36 -->
<g id="node36" class="node">
<title>Node36</title>
<ellipse fill="none" stroke="black" cx="806.95" cy="-366" rx="46.59" ry="18"/>
<text text-anchor="middle" x="806.95" y="-362.3" font-family="Times,serif" font-size="14.00">Node36</text>
</g>
<!-- Node35&#45;&gt;Node36 -->
<g id="edge35" class="edge">
<title>Node35&#45;&gt;Node36</title>
<path fill="none" stroke="black" d="M806.95,-434.8C806.95,-423.16 806.95,-407.55 806.95,-394.24"/>
<polygon fill="black" stroke="black" points="810.45,-394.18 806.95,-384.18 803.45,-394.18 810.45,-394.18"/>
<text text-anchor="middle" x="810.95" y="-405.8" font-family="Times,serif" font-size="14.00">c</text>
</g>
<!-- Node37 -->
<g id="node37" class="node">
<title>Node37</title>
<ellipse fill="none" stroke="black" cx="806.95" cy="-279" rx="46.59" ry="18"/>
<text text-anchor="middle" x="806.95" y="-275.3" font-family="Times,serif" font-size="14.00">Node37</text>
</g>
<!-- Node36&#45;&gt;Node37 -->
<g id="edge36" class="edge">
<title>Node36&#45;&gt;Node37</title>
<path fill="none" stroke="black" d="M806.95,-347.8C806.95,-336.16 806.95,-320.55 806.95,-307.24"/>
<polygon fill="black" stroke="black" points="810.45,-307.18 806.95,-297.18 803.45,-307.18 810.45,-307.18"/>
<text text-anchor="middle" x="811.45" y="-318.8" font-family="Times,serif" font-size="14.00">k</text>
</g>
</g>
</svg>
